<svg xmlns="http://www.w3.org/2000/svg" width="100" height="100" fill="none" viewBox="0 0 100 100">
  <rect width="100" height="100" fill="#000" rx="32"/>
  <g clip-path="url(#a)">
    <path fill="#fff" d="M50 63.52c1.827 0 3.307-.593 3.307-1.323s-1.48-1.323-3.307-1.323-3.307.592-3.307 1.323c0 .73 1.48 1.322 3.307 1.322Z"/>
    <path fill="#fff" d="M82 44.818c0-1.398-.01-4.26-8.093-6.18l.001-16.183c0-1.134-.52-2.202-1.415-2.9a3.656 3.656 0 0 0-3.158-.668L50 23.737l-19.337-4.85a3.678 3.678 0 0 0-4.571 3.566V38.64C18.01 40.557 18 43.419 18 44.819a3.678 3.678 0 0 0 3.678 3.677h3.046a43.809 43.809 0 0 0-.45 3.002c-2.016 1.698-3.31 4.31-3.31 7.228 0 4.1 2.555 7.587 6.087 8.808 4.45 8.328 13.242 13.694 22.989 13.694 9.756 0 18.561-5.38 23.01-13.726 3.478-1.255 5.984-4.712 5.984-8.776 0-2.873-1.257-5.447-3.22-7.149a40.442 40.442 0 0 0-.458-3.078h2.966A3.683 3.683 0 0 0 82 44.82ZM66.474 52.36a1.434 1.434 0 0 0-.274-.712 1.474 1.474 0 0 0-1.17-.575H53.996c-.458 0-.889.213-1.167.575a1.574 1.574 0 0 0-.276.712h-5.119a1.42 1.42 0 0 0-.273-.712 1.473 1.473 0 0 0-1.169-.575H34.958c-.458 0-.889.213-1.167.575a1.52 1.52 0 0 0-.274.712h-2.976c-.006-.184-.024-.368-.024-.552 0-1.164.124-2.263.332-3.31h38.295c.205 1.05.328 2.15.328 3.31 0 .184-.014.368-.02.552h-2.978Zm3.709 9.753c-.384 0-.748-.09-1.082-.238C66.403 69.7 58.898 75.34 50.041 75.34c-8.863 0-16.376-5.653-19.066-13.493a2.694 2.694 0 0 1-1.155.266c-1.645 0-2.969-1.516-2.969-3.39 0-1.87 1.318-3.387 2.963-3.393.453.776.971 1.523 1.563 2.237a21.659 21.659 0 0 1-.645-3.002h3.256l1.032 3.874a1.472 1.472 0 0 0 1.422 1.092h8.092c.667 0 1.25-.45 1.422-1.092l1.032-3.874h6.035l1.033 3.874c.17.645.755 1.092 1.422 1.092h8.091c.667 0 1.252-.45 1.423-1.092l1.031-3.874h3.256a22.059 22.059 0 0 1-.644 3.002 16.576 16.576 0 0 0 1.563-2.237c1.64.006 2.963 1.52 2.963 3.393-.012 1.874-1.333 3.39-2.978 3.39Z"/>
  </g>
  <defs>
    <clipPath id="a">
      <path fill="#fff" d="M18 18h64v64H18z"/>
    </clipPath>
  </defs>
</svg>
